<?xml version="1.0" encoding="UTF-8"?>
<svg xmlns="http://www.w3.org/2000/svg" viewBox="-2493.8810536552564 -3128.5916039167478 5673.45768373007 8379.980489604744">
  <rect x="-2493.8810536552564" y="-3128.5916039167478" width="5673.45768373007" height="8379.980489604744" fill="#1a3a5c"/>
  <polygon points="-1446.1662881509471,-2156.3465574180723 -1286.1654001602324,-2322.0797060351288 -1084.6121812912604,-2459.6781696523512 -847.7655093926156,-2569.771467901249 -581.8842623128822,-2652.989120413333 -293.2273179006443,-2709.9606468201137 11.946445995514239,-2741.315566753101 327.3781515270092,-2747.683399843805 646.8089208452564,-2729.693665723737 963.9798761016716,-2687.9758840244062 1272.6321394476713,-2623.1595743773237 1566.506833034671,-2535.8742564139984 1839.345079014086,-2426.749449765942 2084.887999537334,-2296.4146740646643 2296.876716755828,-2145.4994489416767 2469.0523528209874,-1974.6332940284879 2595.1560298842232,-1784.445728956608 2682.84892110527,-1551.9613049326376 2744.9817012040694,-1259.6039146005594 2783.0797446723577,-916.1020897479597 2798.6684260018715,-530.1843621624242 2793.273119684348,-110.57926363153896 2768.4192002115215,333.9846740571096 2725.632042075131,794.7789191159361 2666.4370197669114,1263.074939757354 2592.3595077786,1730.144204193778 2504.9248806019327,2187.258180637621 2405.6585127286457,2625.688337301298 2296.085778650476,3036.706142397222 2177.732052859161,3411.583064137808 2052.122709846435,3741.590570735469 1920.7831241040367,4018.000130402619 1785.2386701237015,4232.0832113516735 1630.4353544751996,4399.115753054284 1443.5709270081347,4540.386414521981 1229.5483771339912,4656.185743277006 993.2706942642546,4746.804286841589 739.6408678104099,4812.532592737967 473.5618871839416,4853.661208488377 199.93674179633524,4870.480681615053 -76.3315789409242,4863.281559640232 -350.34008561635187,4832.354390086148 -617.1857888184626,4777.989720475037 -871.9656991357717,4700.478098329134 -1109.7768271567936,4600.110071170676 -1325.7161834700444,4477.176186521898 -1514.8807786640377,4331.966991905035 -1672.3676233272886,4164.773034842323 -1793.273728048314,3975.8848628559967 -1886.164191611574,3742.1010457464736 -1962.9857631122802,3446.071457563918 -2023.90792860507,3096.8636022051937 -2069.1001741445803,2703.5449835671593 -2098.7319857854495,2275.1831055466755 -2112.9728495823138,1820.8454720406046 -2111.992251589812,1349.599586945806 -2095.95967786258,870.5129541591416 -2065.0446144552557,392.6530775774713 -2019.4165474224772,-74.91253890234384 -1959.2449628188806,-523.1163913834428 -1884.6993466991046,-942.8909759689641 -1795.9491851177859,-1325.1687887620492 -1693.163964129562,-1660.882325865835 -1576.5131697890704,-1940.9640833834628" fill="#1a3a5c" stroke="#333" stroke-width="5.67345768373007" opacity="0.9"/>
  <polygon points="-752.4225826733605,-1004.0787866149094 -655.2406941412178,-1130.1106292329403 -539.747845694958,-1234.9599606868417 -408.7396779387503,-1319.09315532431 -265.01183147676426,-1382.9765874930415 -111.35994691316924,-1427.076631540732 49.42033514786529,-1451.859661815078 214.53337410216992,-1457.7920526637756 381.1835293455754,-1445.3401784345212 546.5751602739122,-1414.9704134750107 707.9126262830109,-1367.1491321329404 862.400286768702,-1302.3427087560067 1007.2425011268164,-1221.0175176919051 1139.6436287531842,-1123.6399332883327 1256.8080290436367,-1010.6763298929852 1355.9400613940038,-882.5930818535586 1434.2440852001164,-739.8565635177501 1497.7029970122337,-565.2103830664066 1553.9347723320295,-345.4609316970348 1602.5963889824586,-87.16875828231832 1643.3448247864744,203.1055883050593 1675.8370575670315,518.8015591924144 1699.7300651470832,853.3586055070637 1714.6808253495842,1200.2161783763233 1720.3463159974874,1552.8137289275096 1716.3835149137478,1904.5907082879394 1702.4493999213194,2248.9865675849287 1678.2009488431554,2579.4407579457948 1643.2951395022105,2889.3927304978524 1597.3889497214382,3172.2819363684202 1540.1393573237933,3421.5478266848127 1471.2033401322285,3630.6298525743473 1390.2378759696987,3792.9674651643404 1286.8078933410475,3920.2157022746164 1153.6573876655245,4028.502670337037 995.2119371376926,4117.977423396975 815.8971199521146,4188.789015499798 620.1385143033535,4241.086500690881 412.3616983859725,4275.018933015593 196.99225039453424,4290.735366519307 -21.544251476398358,4288.384855247393 -238.82222903226238,4268.116453245224 -450.4161040784945,4230.079214558169 -651.9002984205324,4174.422193231602 -838.849233863813,4101.294443310892 -1006.8373322137727,4010.845018841412 -1151.439015275849,3903.2229738685337 -1268.22870485548,3778.577362437626 -1352.7808227581006,3637.0572385940636 -1409.9916404737094,3461.194663650475 -1448.565758564242,3238.007575672584 -1469.7900924430467,2974.3738438353994 -1474.951557523471,2677.1713373139282 -1465.3370692188616,2353.2779252831815 -1442.2335429425668,2009.5714769181657 -1406.9278941079338,1652.92986139389 -1360.7070381283102,1290.2309478853626 -1304.8578904170438,928.3526055675918 -1240.667366387481,574.1727036155862 -1169.4223814529705,234.56911120435393 -1092.4098510268598,-83.58030249109629 -1010.9166905224956,-373.39766829575547 -926.229815353226,-628.0051170346169 -839.6361409323983,-840.5247795326704" fill="#1a3a5c" stroke="#333" stroke-width="5.67345768373007" opacity="0.9"/>
  <polygon points="355.5905782577893,610.884661230437 368.8607798725343,608.8416091480195 384.6985888416515,605.8437308427541 402.7698113524642,601.9004432276209 422.7402535922958,597.0211632156007 444.27572174846955,591.2153077196738 467.04202200830883,584.4922936528205 490.7049605591368,576.8615379280214 514.930343588277,568.332457458257 539.3839772830527,558.9144691565076 563.7316678307869,548.6169899357535 587.6392214188035,537.4494367089757 610.7724442344253,525.421226389154 632.7971424649759,512.541775889269 653.3791222977785,498.8205021223014 672.1841899201565,484.2668220012314 688.8781515194332,468.8901524390393 704.0873237966822,452.40336020836565 718.6571851828952,434.5849991763689 732.582284460272,415.5430168978075 745.857170411013,395.3853609274396 758.4763918173181,374.2199788200234 770.4344974613875,352.1548181303175 781.7260361254214,329.2978264130799 792.3455565916196,305.756951223069 802.2876076421824,281.640140115043 811.5467380593099,257.0553406437603 820.1174966252019,232.11050036397913 827.9944321220589,206.91356683045777 835.1720933320809,181.5724875979545 841.6450290374679,156.19521022122763 847.4077880204201,130.88968225503544 852.4549190631374,105.76385125413628 856.8133893877388,80.23415462220727 860.5092741421247,53.747907058668915 863.5357839971672,26.459372061894218 865.8861296237392,-1.4771868697437869 867.5535216927126,-29.907506237872095 868.5311708749603,-58.677322544117686 868.8122878413542,-87.63237229010755 868.3900832627669,-116.61839197746866 867.2577678100708,-145.48111810782802 865.4085521541384,-174.06628718281257 862.8356469658419,-202.21963570404935 859.5322629160538,-229.78690017316532 855.4916106756465,-256.61381709178744 850.7069009154925,-282.5461229615428 845.171344306464,-307.4295542840581 838.8781515194332,-331.1098475609607 831.9561821960283,-353.89385418124846 824.5077788537677,-376.1848585394175 816.4863764773606,-397.97324664534233 807.8454100515165,-419.2494045088972 798.5383145609444,-440.0037181399565 788.5185249903533,-460.2265735483946 777.7394763244529,-479.90835674408567 766.1546035479518,-499.0394537369042 753.7173416455595,-517.6102505367245 740.3811256019853,-535.611133153421 726.0993904019382,-553.0324875968679 710.8255710301275,-569.8646998769394 694.5131024712626,-586.0981560035103 677.1154197100524,-601.7232419864545 658.5859577312062,-616.7303438356464 638.8781515194332,-631.1098475609606 617.6196065975582,-645.1540370140856 594.5910421444332,-659.0883631859606 569.9755636288082,-672.8029627953356 543.9562765194332,-686.1879725609606 516.7162862850582,-699.1335292015856 488.43869839443323,-711.5297694359606 459.30661831630823,-723.2668299828356 429.50315151943323,-734.2348475609606 399.21140347255823,-744.3239588890856 368.61447964443323,-753.4243006859606 337.89548550380823,-761.4260096703356 307.23752651943323,-768.2192225609606 276.82370816005823,-773.6940760765856 246.83713589443323,-777.7407069359606 217.46091519130823,-780.2492518578356 188.87815151943323,-781.1098475609606 160.29538784755823,-780.2492518578356 130.91916714443323,-777.7407069359606 100.93259487880823,-773.6940760765856 70.51877651943323,-768.2192225609606 39.86081753505823,-761.4260096703356 9.141823394433231,-753.4243006859606 -21.45510043369177,-744.3239588890856 -51.74684848056677,-734.2348475609606 -81.55031527744177,-723.2668299828356 -110.68239535556677,-711.5297694359606 -138.95998324619177,-699.1335292015856 -166.19997348056677,-686.1879725609606 -192.21926058994177,-672.8029627953356 -216.83473910556677,-659.0883631859606 -239.86330355869177,-645.1540370140856 -261.12184848056677,-631.1098475609606 -280.76296176181677,-616.6628260765856 -299.11012973056677,-601.4711756859606 -316.23659457431677,-585.5715174828356 -332.21559848056677,-569.0004725609606 -347.12038363681677,-551.7946620140856 -361.02419223056677,-533.9907069359606 -374.00026644931677,-515.6252284203356 -386.12184848056677,-496.73484756096065 -397.46218051181677,-477.35618545158565 -408.09450473056677,-457.52586318596065 -418.09206332431677,-437.2805018578356 -427.52809848056677,-416.6567225609607 -436.47585238681677,-395.6911463890857 -445.00856723056677,-374.4203944359607 -453.19948519931677,-352.8810877953357 -461.12184848056677,-331.1098475609607 -468.82448519931677,-308.8564295922107 -476.25856723056677,-285.8950038109607 -483.35085238681677,-262.2988124047107 -490.02809848056677,-238.1410975609607 -496.21706332431677,-213.4951014672107 -501.84450473056677,-188.43406631096073 -506.83718051181677,-163.03123427971073 -511.12184848056677,-137.3598475609607 -514.6252664493168,-111.49314834221073 -517.2741922305668,-85.50437881096072 -518.9953836368168,-59.466781154710716 -519.7155984805668,-33.45359756096076 -519.3615945743168,-7.538070217210748 -517.8601297305668,18.206558689039248 -515.1379617618168,43.70704697028925 -511.12184848056677,68.8901524390393 -505.69815724602375,94.32837145464329 -498.8681928716062,120.52617009729423 -490.73111935113116,147.30826076075047 -481.3861006784161,174.49935583877047 -470.93230084727804,201.9241677251126 -459.46888385153426,229.40740881353523 -447.09501368500196,256.7737914977968 -433.9098543414983,283.84802817165576 -420.01256981484056,310.45483122887043 -405.5023240988459,336.4189130631992 -390.4782811873316,361.5649860684005 -375.0396050741148,385.71776263823284 -359.2854597530126,408.70195516645447 -343.3150092178425,430.3422760468238 -327.22741746242144,450.4634376730993 -311.12184848056677,468.8901524390393 -294.1503194612009,486.0024149248998 -275.5763868389006,502.281442390081 -255.6665234759641,517.7037812470577 -234.6872022346899,532.2459779083047 -212.90489597737627,545.8845787862966 -190.58607756632165,558.5961302935085 -167.99721986382437,570.3571788424151 -145.40479573218283,581.1442708454913 -123.07527803369541,590.9339527152115 -101.27513963066046,599.702770864051 -80.27085338537638,607.427271704484 -60.328892160141535,614.084001648986 -41.71572881725429,619.6495071100313 -24.69783621901304,624.1003345000948 -9.541687227716153,627.4130302316514 3.486245294338005,629.5641407171762 14.684386991033847,630.2633720285266 24.57950753098695,629.3249438750951 33.2476500889957,626.8821731256565 40.764857839858465,623.0683766489861 47.207173958373616,618.0168713138593 52.65064161933954,611.860973989051 57.17130399755459,604.7340015433367 60.84520426781717,596.7692708454915 63.74838560492562,588.1000987642905 65.95689118367835,578.8598021685088 67.54676417887372,569.1816979269219 68.5940477653101,559.1991029083049 69.17478511778586,549.0453339814329 69.36501941109938,538.8537080150811 69.24079382004906,528.757541878025 68.87815151943323,518.8901524390395 67.87145949070356,508.8435646262245 65.83538140715751,498.164541671824 62.87640548136234,486.91850790082964 59.10101992588524,475.17088763823307 54.61571295329341,462.9871052090257 49.526972776154075,450.43258493819934 43.941287607034425,437.57275115074555 37.96514565850168,424.4730281716559 31.705035143123048,411.19884032592194 25.267444273465735,397.81561193853537 18.758861262096957,384.3887673344876 12.2857743215839,370.98373083877055 5.954671664493802,357.66592677637556 -0.12795849660615488,344.5007794722943 -5.85562794914874,331.5537132515184 -11.121848480566769,318.8901524390393 -16.23171176181677,306.3901524390393 -21.53200473056677,293.8901524390393 -26.97878207431677,281.3901524390393 -32.52809848056677,268.8901524390393 -38.13600863681677,256.39015243903924 -43.75856723056677,243.89015243903927 -49.35182894931677,231.39015243903927 -54.87184848056677,218.8901524390393 -60.27468051181677,206.39015243903927 -65.51637973056677,193.89015243903927 -70.55300082431677,181.39015243903927 -75.34059848056677,168.89015243903924 -79.83522738681677,156.39015243903927 -83.99294223056677,143.89015243903924 -87.76979769931677,131.39015243903924 -91.12184848056677,118.8901524390393 -94.60573519931677,106.2070469702893 -98.68044223056677,93.2065586890393 -103.15553988681677,79.9619297827893 -107.84059848056677,66.5464024390393 -112.54518832431677,53.0332188452893 -117.07887973056677,39.4956211890393 -121.25124301181677,26.006851657789298 -124.87184848056677,12.640152439039298 -127.75026644931677,-0.5312342797107021 -129.69606723056677,-13.434066310960702 -130.51882113681677,-25.995101467210702 -130.02809848056677,-38.1410975609607 -128.03346957431677,-49.7988124047107 -124.34450473056677,-60.8950038109607 -118.77077426181677,-71.3564295922107 -111.12184848056677,-81.1098475609607 -101.16091098056677,-90.4726405297107 -88.93434848056677,-99.7621913109607 -74.67653598056677,-108.9052577172107 -58.62184848056677,-117.8285975609607 -41.00466098056677,-126.4589686547107 -22.05934848056677,-134.7231288109607 -2.0202859805667686,-142.5478358422107 18.87815151943323,-149.8598475609607 40.40158901943323,-156.5859217797107 62.31565151943323,-162.6528163109607 84.38596401943323,-167.9872889672107 106.37815151943323,-172.5160975609607 128.05783901943323,-176.1659999047107 149.19065151943323,-178.8637538109607 169.54221401943323,-180.5361170922107 188.87815151943323,-181.1098475609607 208.21408901943323,-180.5361170922107 228.56565151943323,-178.8637538109607 249.69846401943323,-176.1659999047107 271.37815151943323,-172.5160975609607 293.37033901943323,-167.9872889672107 315.44065151943323,-162.6528163109607 337.35471401943323,-156.5859217797107 358.87815151943323,-149.8598475609607 379.77658901943323,-142.5478358422107 399.81565151943323,-134.7231288109607 418.76096401943323,-126.4589686547107 436.37815151943323,-117.8285975609607 452.43283901943323,-108.9052577172107 466.69065151943323,-99.7621913109607 478.91721401943323,-90.4726405297107 488.87815151943323,-81.1098475609607 496.52707730068323,-71.3564295922107 502.10080776943323,-60.8950038109607 505.78977261318323,-49.7988124047107 507.78440151943323,-38.1410975609607 508.27512417568323,-25.995101467210702 507.45237026943323,-13.434066310960702 505.50656948818323,-0.5312342797107021 502.62815151943323,12.640152439039298 499.00754605068323,26.006851657789298 494.83518276943323,39.4956211890393 490.30149136318323,53.0332188452893 485.59690151943323,66.5464024390393 480.91184292568323,79.9619297827893 476.43674526943323,93.2065586890393 472.36203823818323,106.2070469702893 468.87815151943323,118.8901524390393 465.52610073818323,131.3901524390393 461.74924526943323,143.8901524390393 457.59153042568323,156.3901524390393 453.09690151943323,168.8901524390393 448.30930386318323,181.3901524390393 443.27268276943323,193.89015243903927 438.03098355068323,206.39015243903927 432.62815151943323,218.8901524390393 427.10813198818323,231.3901524390393 421.51487026943323,243.89015243903927 415.89231167568323,256.3901524390393 410.28440151943323,268.8901524390393 404.73508511318323,281.3901524390393 399.28830776943323,293.89015243903924 393.98801480068323,306.3901524390393 388.87815151943323,318.8901524390393 383.6461341364895,331.58791639999254 378.0119532897765,344.62847122659815 372.0684159324718,357.9327113344747 365.90832901775303,371.4215311392409 359.6244994987975,385.01582505651567 353.30973432878284,398.6364875019174 347.05684046088646,412.204412891065 340.958624848286,425.640495639577 335.10789444415883,438.8656301630723 329.5974562016826,451.8007108771695 324.5201170740346,464.36663219748726 319.9686840143926,476.4842885396443 316.0359639759339,488.07457431925934 312.8147639118361,499.0583839519511 310.3978907752767,509.35661185333817 308.87815151943323,518.8901524390395 307.7926826810615,528.0347153402691 306.69480746344414,537.1572318507583 305.7016128195485,546.1654288799008 304.93018570234204,554.9670333370905 304.4976130647923,563.4697721317216 304.52098185986694,571.5813721731877 305.11737904053314,579.2095603708827 306.4038915597585,586.2620636342007 308.49760637051054,592.6466088725354 311.51561042575673,598.2709229952809 315.57499067846453,603.042732911831 320.79283408160137,606.8697655315797 327.28622758813475,609.6597477639206 335.1722581510323,611.3204065182478 344.5680127232613,611.7594687039553" fill="#c2b280" stroke="#333" stroke-width="5.67345768373007" opacity="0.9"/>
  <polygon points="-162.9629601447973,-532.6162906722698 -129.78051562637808,-542.4544559931636 -90.94842116873491,-549.7747179154165 -47.29520872276956,-554.7021378699354 0.3505897606163231,-557.3617772876266 51.160442330521036,-557.8786975993969 104.30581703604288,-556.3779602361526 158.95818192628016,-552.9846266288008 214.28900505033113,-547.8237582082478 269.46975445729424,-541.0204164054002 323.67189819626765,-532.6996626511649 376.0669043163498,-522.9865583764483 425.82624086663884,-512.0061650121571 472.12137589623313,-499.8835439891979 514.123777454231,-486.7437567384774 551.0049135897307,-472.7118646909021 581.9362523518308,-457.9129292773789 608.4214683020549,-440.30916581620204 632.5206708176738,-418.26168344285134 654.2399801714057,-392.49388431401053 673.585516635969,-363.7291705863638 690.5634004840821,-332.69094441659496 705.1797519884634,-300.10260796138795 717.4406914218309,-266.6875633774268 727.3523390569032,-233.16921282139543 734.9208151663987,-200.2709584499777 740.1522400230356,-168.71620241985772 743.0527338995322,-139.22834688771937 743.628417068607,-112.53079401024655 741.8854098029782,-89.34694594412332 737.8298323753642,-70.4002048460336 731.4678050584833,-56.41397287266119 722.8054481250537,-48.11165218069016 711.0958092494499,-46.153332488406 695.7840510777385,-50.18714820816091 677.1644663401761,-59.41856853773916 655.5313477670196,-73.05306267492506 631.1789880885262,-90.29609981750284 604.4016800349524,-110.35314916325677 575.4937163365552,-132.42967990997116 544.7493897235914,-155.7311612554303 512.4629929263178,-179.4630623974184 478.9288186749914,-202.83085253371982 444.4411596998691,-225.04000086211872 409.2943087312075,-245.29597658039944 373.7825584992636,-262.8042488863464 338.2002017342943,-276.7702869777435 302.8415311665563,-286.39956005237536 268.00083952630655,-290.89753730802624 231.1972257477731,-289.79315408895627 190.2712907833152,-283.6590874635169 145.99958039038665,-273.26641921562873 99.15864032644112,-259.38623112921266 50.525016348932425,-242.7896049881893 0.8752542153143921,-224.24762257647942 -49.01410031695923,-204.53136567800377 -98.3665014904347,-184.4119160766831 -146.40540354765824,-164.6603555564381 -192.354260731176,-146.0477659011895 -235.43652728353425,-129.34522889485808 -274.87565744727925,-115.32382632136452 -309.89510546495717,-104.75463996462958 -339.7183255791143,-98.40875160857394 -363.56877203229686,-97.0572430371185 -380.6698990670509,-101.47119603418366 -391.82430688155705,-112.29949708582073 -398.5179107186496,-129.12696844260296 -400.99913738785597,-151.12859553523478 -399.5164136987033,-177.47936379442064 -394.31816646071894,-207.35425865086484 -385.65282248343004,-239.92826553527192 -373.76880857636405,-274.3763698783462 -358.9145515490482,-309.87355711079226 -341.3384782110096,-345.5948126633143 -321.2890153717758,-380.71512196661683 -299.0145898408738,-414.40947045140433 -274.763628427831,-445.85284354838114 -248.78455794217464,-474.22022668825167 -221.32580519343207,-498.68660530172036 -192.6357969911305,-518.4269648194916" fill="#5a8f3c" stroke="#333" stroke-width="5.67345768373007" opacity="0.9"/>
  <polygon points="-584.462887091739,1637.053023402415 -580.4085863083735,1646.1218981580173 -579.5995046223447,1660.10437258688 -581.5431992531074,1678.3700062482867 -585.7472274201172,1700.2883587015217 -591.7191463428283,1725.2289895058686 -598.9665132406964,1752.561458220612 -606.9968853331761,1781.6553244050356 -615.3178198397227,1811.8801476184228 -623.4368739797911,1842.6054874200581 -630.8616049728363,1873.200903369226 -637.0995700383135,1903.0359550252094 -641.6583263956775,1931.480201947293 -644.0454312643835,1957.9032036947604 -643.7684418638863,1981.6745198268957 -640.3349154136412,2002.163709902983 -633.2524091331031,2018.7403334823066 -622.7775523911953,2032.2150278186634 -609.6675850493131,2043.9107691852219 -594.1809800656206,2053.9656256703206 -576.5762103982813,2062.5176653623 -557.1117490054589,2069.704956349499 -536.0460688453171,2075.6655667202563 -513.6376428760198,2080.537564562912 -490.1449440557305,2084.4590179658057 -465.82644534261306,2087.567995017276 -440.940619694831,2090.0025638056622 -415.74594007054816,2091.900792419305 -390.5008794279282,2093.400748946542 -365.46391072513495,2094.6405014757133 -340.8935069203319,2095.758118095159 -317.0481409716828,2096.8916668932166 -294.18628583735165,2098.1792159582274 -271.6345372150709,2099.1881237754596 -248.60038542041133,2099.441574554252 -225.16364533829292,2099.011374969049 -201.40413185363587,2097.969331694293 -177.40165985136028,2096.3872514044274 -153.23604421638635,2094.336940773896 -128.98709983363412,2091.890206477142 -104.73464158802378,2089.1188551886084 -80.55848436447546,2086.0946935827396 -56.53844304790928,2082.8895283339784 -32.754332523245424,2079.5751661167683 -9.285967675403974,2076.223413605552 13.786836610694955,2072.906077474774 36.384265450131196,2069.694964398877 58.42650395798463,2066.6618810523046 79.83373724933517,2063.8786341095 100.62189901407716,2061.2763842418285 120.89490449181874,2058.721672673379 140.7049111222102,2056.1893769076805 160.10407634490193,2053.654374448262 179.14455759954416,2051.0915427986506 197.87851232578728,2048.4757594623766 216.35809796328158,2045.7819019429685 234.63547195167735,2042.9848477439546 252.76279173062488,2040.0594743688644 270.7922147397746,2036.980659321226 288.77589841877676,2033.7232801045686 306.7660002072817,2030.2622142224207 324.8146775449396,2026.5723391783113 342.974087871401,2022.6285324757687 361.2963886263161,2018.4056716183222 379.8337372493352,2013.8786341095004 398.56044711048486,2008.904178332442 417.39741052863303,2003.4062908751491 436.3166533666924,1997.460691548445 455.2902014875752,1991.1431001631531 474.290080754194,1984.5292365300968 493.2883170294613,1977.6948204600997 512.2569361762896,1970.7155717639841 531.1679640575913,1963.6672102525747 549.993426536279,1956.625455736694 568.7053494752652,1949.6660280271656 587.2757587374621,1942.8646469348128 605.6766801857824,1936.2970322704589 623.8801396831386,1930.0389038449273 641.8581630924431,1924.1659814690415 659.5827762766085,1918.7539849536247 677.0260050985471,1913.8786341095004 694.5477991876508,1908.778822317792 712.4444472749967,1902.8089062765953 730.5924838760258,1896.2178007721898 748.8684435061787,1889.2544205908555 767.1488606808965,1882.1676805188724 785.3102699156199,1875.2064953425204 803.2292057257898,1868.6197798480796 820.7822026268467,1862.65644882183 837.8457951342319,1857.5654170500516 854.296517763386,1853.595599319024 870.0109050297498,1850.9959104150273 884.8654914487641,1850.015265124342 898.7368115358698,1850.9025782332474 911.501399806508,1853.9067645280236 923.035790776119,1859.2767387949507 933.216518960144,1867.261415820309 941.8834307205075,1877.9910028018119 949.061751282556,1891.2733501536381 954.906083456863,1906.8738374867628 959.571030054002,1924.5578444121622 963.2111938845469,1944.0907505408118 965.9811777590708,1965.237935483687 968.0355844881472,1987.7647788517636 969.5290168823499,2011.4366602560171 970.6160777522522,2036.0189593074238 971.4513699084278,2061.2770556169585 972.18949616145,2086.976328795597 972.9850593218925,2112.8821584543157 973.9926622003289,2138.7599242040897 975.3669076073326,2164.3750056558943 977.262398353477,2189.4927824207057 979.8337372493356,2213.8786341095 984.033922591921,2238.890248296457 990.3831676623794,2265.794379429959 998.3868977474851,2294.220007432286 1007.5505381340129,2323.796112225715 1017.3795141087368,2354.151673732528 1027.3792509584318,2384.915671875002 1037.0551739698724,2415.7170865754165 1045.9127084298325,2446.1848977560503 1053.4572796250875,2475.948085339183 1059.1943128424114,2504.6356292470923 1062.6292333685783,2531.876509402059 1063.2674664903634,2557.299705726361 1060.6144374945409,2580.5341981422775 1054.1755716678854,2601.208966572088 1043.456294297171,2618.952990938071 1027.9620306691727,2633.3952511625052 1006.7533109676963,2644.2084892897506 979.7126992183714,2651.581450464369 947.5786714707073,2655.917119258946 911.089703774214,2657.6184802460675 870.9842721784006,2657.0885179983175 828.0008527327773,2654.7302170882813 782.8779214868536,2650.9465620885453 736.3539544901389,2646.140537571693 689.167427792143,2640.715128110311 642.0568174423756,2635.0733182769836 595.7605994903463,2629.6180926442958 551.0172499855647,2624.752435784834 508.5652449775406,2620.879332271181 469.14306051578336,2618.4017666759246 433.48917264980287,2617.7227235716477 402.34205742910854,2619.2451875309366 374.45955211030264,2622.068637622194 348.07738724657105,2625.0670207672597 323.15087883229904,2628.3050233188783 299.63534286187223,2631.8473316297923 277.486095329676,2635.758632052745 256.65845223009575,2640.1036109404795 237.10772955751708,2644.9469546457412 218.7892433063253,2650.3533495212705 201.65830947090592,2656.3874819198118 185.67024404564438,2663.1140381941095 170.78036302492612,2670.5977046969056 156.94398240313666,2678.903167780944 144.11641817466136,2688.0951137989673 132.25298633388573,2698.2382291037197 121.30900287519519,2709.397200047945 111.23978379297523,2721.6367129843843 102.23888001810289,2735.3434902656145 94.49986375082041,2750.7263796092425 87.97808288956095,2767.583255415559 82.62888533275768,2785.7119920848563 78.40761897884379,2804.9104640174264 75.26963172625243,2824.97654561356 73.17027147341679,2845.7081112735486 72.06488611877003,2866.903035397685 71.90882356074535,2888.3591923862596 72.65743169777588,2909.8744566395644 74.26605842829481,2931.2467025578917 76.69005165073533,2952.2738045415317 79.88475926353058,2972.753636990777 83.80552916511378,2992.4840743059194 88.40770925391803,3011.26299088725 93.64664742837658,3028.8882611350596 99.72507263515071,3046.0061403076247 106.84325075249153,3063.3241162873446 114.95283507621684,3080.7319124106934 124.00547890214445,3098.1192520141476 133.95283552609214,3115.3758584341836 144.7465582438778,3132.3914550072773 156.33830035131916,3149.0557650699047 168.67971514423402,3165.258511958542 181.72245591844026,3180.8894190096644 195.41817596975562,3195.8382095597485 209.71852859399795,3209.9946069452703 224.57516708698506,3223.248334502705 239.93974474453475,3235.4891155685295 255.76391486246476,3246.60667347922 271.999330736593,3256.4907315712517 288.59764566273725,3265.0310131811007 305.80226844978057,3272.4901425218222 323.8475661935146,3279.188141494174 342.6716296201196,3285.1008299661835 362.21254945577584,3290.2040278058807 382.40841642666373,3294.473554881294 403.19732125896377,3297.8852310604534 424.51735467885624,3300.4148762113864 446.3066074125214,3302.038310202122 468.50317018613964,3302.7313529006906 491.0451337258914,3302.4698241751194 513.870588757957,3301.229543893438 536.9176260085168,3298.986331923675 560.124336203751,3295.71600813386 583.4288100698403,3291.3943923920215 606.7691383329648,3285.9973045661886 630.0834117193049,3279.5005645243896 654.4358967833454,3270.3563997444844 680.6785952703447,3257.457718529404 708.4312006926428,3241.4413619847815 737.3134065625809,3222.944171216253 766.9449063924989,3202.6029873294538 796.9453936947376,3181.0546514300186 826.9345619816372,3158.9360046235834 856.5321047655385,3136.8838880157814 885.3577155587817,3115.535142712248 913.0310878737074,3095.5266098186203 939.171915222656,3077.495130440531 963.3998911179682,3062.077545683616 985.3347090719842,3049.9106966535096 1004.5960625970447,3041.631424455848 1020.8036452054899,3037.8765701962666 1033.5771504096606,3039.282974980399 1042.861278880231,3045.7623367247343 1049.0549430503243,3056.513995290406 1052.4591540759543,3071.1062547000215 1053.3749231131353,3089.1074189761857 1052.1032613178809,3110.085792141505 1048.945179846205,3133.609678218585 1044.201689854122,3159.2473812300314 1038.1738024976453,3186.56720519845 1031.162528932789,3215.1374541464465 1023.4688803155672,3244.5264320966276 1015.3938678019933,3274.302443071598 1007.2385025480817,3304.033791093964 999.3037957098463,3333.288780186331 991.8907584433007,3361.635714371306 985.3004019044591,3388.6428976714938 979.8337372493356,3413.8786341094997 975.0373178204936,3438.821752188607 970.2307809555309,3465.055574829545 965.3747638030119,3492.305147681088 960.4299035115004,3520.295516392014 955.3568372295607,3548.7517266111 950.1162021057572,3577.398823987119 944.6686352886541,3605.9618541688506 938.9747739268153,3634.165862805069 932.9952551688054,3661.73589554455 926.6907161631885,3688.3969980360716 920.0217940585289,3713.874215928409 912.9491260033907,3737.8925948703386 905.433349146338,3760.177180510636 897.4351006359352,3780.4530184980777 888.9150176207464,3798.4451544814406 879.8337372493356,3813.8786341094997 870.2634247493356,3826.6166712188747 860.3024872493356,3836.8766809844997 849.9509247493356,3844.9150110626247 839.2087372493356,3850.9880091094997 828.0759247493356,3855.3520227813747 816.5524872493357,3858.2633997344997 804.6384247493357,3859.9784876251247 792.3337372493357,3860.7536341095 779.6384247493357,3860.845186843875 766.5524872493359,3860.5094934845 753.0759247493357,3860.002901687625 739.2087372493357,3859.5817591095 724.9509247493359,3859.5024134063756 710.3024872493359,3860.0212122345006 695.2634247493359,3861.3945032501256 679.8337372493356,3863.8786341094997 663.8303192805856,3867.0036341094997 647.1188934993356,3870.1286341094997 629.7727020930856,3873.2536341094997 611.8649872493356,3876.3786341094997 593.4689911555854,3879.5036341094997 574.6579559993354,3882.6286341094997 555.5051239680854,3885.7536341094997 536.0837372493354,3888.8786341095 516.4670380305854,3892.0036341095 496.72826849933534,3895.1286341095 476.9406708430853,3898.2536341095 457.17748724933523,3901.3786341095 437.51195990558523,3904.5036341095006 418.0173309993352,3907.6286341095006 398.76684271808523,3910.7536341095006 379.8337372493352,3913.8786341094997 361.0837372493352,3917.1867395782497 342.3337372493352,3920.8122278594997 323.5837372493351,3924.6818567657497 304.8337372493352,3928.7223841094997 286.0837372493352,3932.8605677032497 267.3337372493351,3937.0231653594997 248.58373724933512,3941.1369348907497 229.83373724933514,3945.1286341095 211.08373724933517,3948.92502082825 192.33373724933514,3952.4528528595 173.58373724933514,3955.63888801575 154.83373724933517,3958.4098841095 136.0837372493352,3960.6925989532506 117.33373724933513,3962.4137903595006 98.58373724933516,3963.5002161407506 79.83373724933517,3963.8786341094997 61.08373724933517,3963.5002161407497 42.33373724933517,3962.4137903594997 23.583737249335172,3960.6925989532497 4.833737249335172,3958.4098841094997 -13.916262750664828,3955.6388880157497 -32.66626275066483,3952.4528528594997 -51.41626275066483,3948.9250208282497 -70.16626275066483,3945.1286341095 -88.91626275066483,3941.13693489075 -107.66626275066483,3937.0231653595 -126.41626275066483,3932.86056770325 -145.16626275066483,3928.7223841095 -163.91626275066483,3924.6818567657506 -182.66626275066483,3920.8122278595006 -201.41626275066483,3917.1867395782506 -220.16626275066483,3913.8786341094997 -239.09936821941483,3910.7536341094997 -258.3498565006648,3907.6286341094997 -277.8444854069148,3904.5036341094997 -297.5100127506648,3901.3786341094997 -317.2731963444148,3898.2536341094997 -337.0607940006648,3895.1286341094997 -356.7995635319148,3892.0036341094997 -376.4162627506648,3888.8786341095 -395.8376494694148,3885.7536341095 -414.9904815006648,3882.6286341095 -433.8015166569148,3879.5036341095 -452.1975127506648,3876.3786341095 -470.1052275944148,3873.2536341095006 -487.4514190006648,3870.1286341095006 -504.1628447819148,3867.0036341095006 -520.1662627506648,3863.8786341094997 -535.5959502506648,3861.3945032501247 -550.6350127506648,3860.0212122344997 -565.2834502506648,3859.5024134063747 -579.5412627506648,3859.5817591094997 -593.4084502506648,3860.0029016876247 -606.8850127506648,3860.5094934844997 -619.9709502506648,3860.8451868438747 -632.6662627506648,3860.7536341095 -644.9709502506648,3859.978487625125 -656.8850127506648,3858.2633997345 -668.4084502506648,3855.352022781375 -679.5412627506648,3850.9880091095 -690.2834502506648,3844.9150110626256 -700.6350127506648,3836.8766809845006 -710.5959502506648,3826.6166712188756 -720.1662627506648,3813.8786341094997 -729.2543975162898,3798.8578821563747 -737.7932158756648,3781.9938684844997 -745.8193389225398,3763.3964563751247 -753.3693877506648,3743.1755091094997 -760.4799834537898,3721.4408899688747 -767.1877471256648,3698.3024622344997 -773.5292998600398,3673.8700891876247 -779.5412627506648,3648.2536341095 -785.2602568912898,3621.562960281375 -790.7229033756648,3593.9079309845 -795.9658232975398,3565.398409500125 -801.0256377506648,3536.1442591095 -805.9389678287898,3506.2553430938756 -810.7424346256648,3475.8415247345006 -815.4726592350398,3445.0126673126256 -820.1662627506648,3413.8786341094997 -824.7561065006648,3381.8717981719997 -829.1506377506648,3348.4489466094997 -833.3498565006648,3313.7565637969997 -837.3537627506648,3277.9411341094997 -841.1623565006648,3241.1491419219997 -844.7756377506648,3203.5270716094997 -848.1936065006648,3165.2214075469997 -851.4162627506648,3126.3786341095 -854.4436065006648,3087.145235672 -857.2756377506648,3047.6676966095 -859.9123565006648,3008.092501297 -862.3537627506648,2968.5661341095 -864.5998565006648,2929.235079422 -866.6506377506648,2890.2458216095 -868.5061065006648,2851.7448450470006 -870.1662627506648,2813.8786341094997 -871.6311065006648,2776.0124231719997 -872.9006377506648,2737.5114466094997 -873.9748565006648,2698.5221887969997 -874.8537627506648,2659.1911341094997 -875.5373565006648,2619.6647669219997 -876.0256377506648,2580.0895716094997 -876.3186065006648,2540.6120325469997 -876.4162627506648,2501.3786341094997 -876.3186065006648,2462.5358606719997 -876.0256377506648,2424.2301966094997 -875.5373565006648,2386.608126296999 -874.8537627506648,2349.8161341094997 -873.9748565006648,2314.0007044219997 -872.9006377506648,2279.3083216095 -871.6311065006648,2245.8854700469997 -870.1662627506648,2213.8786341095 -868.7545868027747,2182.976825535355 -867.5782975452082,2152.7827154326933 -866.5380028571217,2123.313277231171 -865.5343106176709,2094.585484360447 -864.467828706012,2066.61631025018 -863.2391650013012,2039.4227283300263 -861.7489273826944,2013.0217120296447 -859.8977237293477,1987.430234778693 -857.5861619204171,1962.665270006829 -854.7148498350588,1938.7437911437103 -851.1843953524287,1915.6827716189955 -846.895406351683,1893.499184862342 -841.7484907119778,1872.210004303408 -835.6442563124689,1851.832203371851 -828.4833110323126,1832.3827554973288 -820.1662627506648,1813.8786341095001 -810.0143752653602,1795.6746980639998 -797.6447618122301,1777.278230114023 -783.4018044274264,1758.9348395355662 -767.629885147101,1740.890135604626 -750.6733860074056,1723.3897275971992 -732.8766890444919,1706.6792247892822 -714.5841762945116,1691.004236456872 -696.1402297936166,1676.6103718759646 -677.8892315779588,1663.7432403225566 -660.1755636836897,1652.6484510726457 -643.3436081469611,1643.5716134022275 -627.737747003925,1636.7583365872993 -613.7023622907329,1632.4542299038574 -601.5818360435367,1630.904902627898 -591.7205502984882,1632.3559640354185" fill="#c2b280" stroke="#333" stroke-width="5.67345768373007" opacity="0.9"/>
  <polygon points="-640.6606242653818,2402.134241342826 -632.1112432975486,2367.5612669765783 -618.4431700123475,2337.3694980190244 -600.3065785072874,2311.5292403634458 -578.3516428798767,2290.0107999031225 -553.2285372276242,2272.7844825313373 -525.5874356480382,2259.82059414137 -496.0785122386274,2251.089440626503 -465.35194109690053,2246.561327880017 -434.057896320366,2246.2065617951935 -402.84655200653265,2249.9954482653134 -372.3680822529089,2257.8982931836586 -343.2726611570033,2269.885402443509 -316.21046281632465,2285.9270819381477 -291.83166132838136,2305.9936375608545 -270.7864307906822,2330.0553752049113 -253.72494530073538,2358.0826007635997 -239.340081413103,2393.571151542386 -225.9219696440091,2439.1189547552653 -213.51666503345595,2493.3494511583126 -202.170222621446,2554.8860815076 -191.9286974479815,2622.352286559202 -182.83814455306498,2694.3715070691924 -174.9446189766987,2769.5671837936434 -168.29417575888516,2846.5627574886294 -162.9328699396266,2923.981668910224 -158.9067565589255,3000.447358814501 -156.26189065678415,3074.5832679575337 -155.04432727320494,3145.0128370953953 -155.3001214481903,3210.3595069841604 -157.07532822174255,3269.2467183799017 -160.41600263386414,3320.297912038692 -165.36819972455726,3362.136528716606 -172.63918263233697,3398.15425386503 -182.69439183477797,3432.4290141635183 -195.21714838047262,3464.6136122103944 -209.8907733180132,3494.3608506039845 -226.3985876959921,3521.3235319426126 -244.42391256300155,3545.1544588246043 -263.65006896763396,3565.506433848283 -283.76037795848157,3582.032259611976 -304.4381605841367,3594.384738714005 -325.3667378931918,3602.2166737526973 -346.229430934239,3605.1808673263763 -366.7095607558708,3602.930122033368 -386.49044840667943,3595.117240471997 -405.25541493525725,3581.3950252405875 -422.6877813901965,3561.416278937464 -438.47086882008966,3534.8338041609536 -454.13413076777556,3497.900502599991 -471.16510661962946,3448.2697080461767 -489.1842461895481,3387.6948712518324 -507.81199929142815,3317.9294429692777 -526.6688157391662,3240.7268739508336 -545.3751453466595,3157.840614948819 -563.5514379278039,3071.0241167155555 -580.8181432964968,2982.030830003363 -596.7957112666347,2892.6142055645623 -611.1045916521142,2804.527694151473 -623.3652342668321,2719.524746516416 -633.198088924685,2639.358813411712 -640.2236054395696,2565.7833455896807 -644.062233625383,2500.5517938026424 -644.3344232960213,2445.417608802917" fill="#5a8f3c" stroke="#333" stroke-width="5.67345768373007" opacity="0.9"/>
</svg>
