<?xml version="1.0" encoding="UTF-8"?>
<svg xmlns="http://www.w3.org/2000/svg" viewBox="-2614.6078924255366 -2610.773923065185 5120.399620788573 5179.042383361816">
  <rect x="-2614.6078924255366" y="-2610.773923065185" width="5120.399620788573" height="5179.042383361816" fill="#1a3a5c"/>
  <polygon points="2252.333,870.832 2241.9319951171874,935.238003540039 2228.7725546875,1001.7458173828126 2213.184977539063,1069.7410838623048 2195.4995625,1138.6094453125 2176.0466083984375,1207.7365440673827 2155.1564140625,1276.5080224609374 2133.1592783203128,1344.3095228271486 2110.3855000000003,1410.5266875000002 2087.1653779296876,1474.5451588134767 2063.8292109375,1535.7505791015628 2040.707297851562,1593.5285906982422 2018.1299374999996,1647.2648359375 1996.427428710937,1696.3449571533204 1975.9300703124995,1740.154596679688 1956.968161132812,1778.0793968505864 1939.872,1809.505 1923.9257766113283,1833.291327758789 1908.2228847656252,1849.3122470703127 1892.8074294433595,1858.4743182373047 1877.7235156250001,1861.6841015625002 1863.0152482910157,1859.8481573486329 1848.726732421875,1853.8730458984376 1834.902072998047,1844.6653275146484 1821.585375,1833.1315625 1808.8207434082033,1820.1783111572263 1796.652283203125,1806.7121337890626 1785.1240993652343,1793.6395906982423 1774.280296875,1781.8672421874999 1764.1649807128908,1772.30164855957 1754.822255859375,1765.849370117187 1746.296227294922,1763.4169671630855 1738.631,1765.911 1732.291662109375,1772.727076904297 1727.5683125,1782.374396484375 1724.242572265625,1794.4299045410157 1722.0960625,1808.470546875 1720.910404296875,1824.0732692871095 1720.4672187499998,1840.815017578125 1720.5481269531251,1858.2727375488282 1720.9347500000001,1876.023375 1721.408708984375,1893.643875732422 1721.7516249999999,1910.711185546875 1721.7451191406249,1926.8022502441406 1721.1708125,1941.4940156249997 1719.8103261718747,1954.3634274902345 1717.4452812499999,1964.987431640625 1713.8572988281246,1972.9429738769531 1708.828,1977.807 1703.5492432861327,1978.8331641845703 1699.1474072265623,1975.9630087890625 1695.3058929443362,1969.8053118896485 1691.7081015625001,1960.9688515625 1688.0374342041016,1950.062405883789 1683.9772919921875,1937.6947529296876 1679.2110760498047,1924.4746707763672 1673.4221875000003,1911.0109375 1666.2940274658206,1897.912331176758 1657.509997070313,1885.7876298828128 1646.7534974365237,1875.2456116943363 1633.7079296875002,1866.8950546875003 1618.0566949462893,1861.3447369384767 1599.483194335938,1859.2034365234379 1577.6708289794926,1861.0799315185552 1552.303,1867.583 1522.486265991211,1879.2508792724611 1487.9312841796877,1895.7747998046873 1449.2276036376954,1916.4930294189453 1406.9647734375003,1940.7438359375 1361.7323426513672,1967.8654871826172 1314.1198603515627,1997.1962509765624 1264.7168756103515,2028.0743951416016 1214.1129375,2059.8381875 1162.8975950927736,2091.825895874023 1111.6603974609377,2123.3757880859375 1060.9908936767579,2153.8261319580074 1011.4786328125001,2182.5151953124996 963.7131639404298,2208.7812459716793 918.2840361328128,2231.962551757812 875.7807984619142,2251.3973804931634 836.793,2266.424 802.0275803222655,2278.6633764648436 771.321705078125,2290.06888671875 743.9602624511718,2300.477414550781 719.228140625,2309.72584375 696.4102277832031,2317.6510581054686 674.7914121093751,2324.08994140625 653.6565817871094,2328.879377441406 632.290625,2331.85625 609.9784299316406,2332.8574428710936 586.0048847656249,2331.71983984375 559.6548776855468,2328.280324707031 530.213296875,2322.3757812500003 496.965030517578,2313.843093261719 459.19496679687484,2302.51914453125 416.1879938964842,2288.240818847656 367.229,2270.845 312.4279083251953,2250.761039550781 252.69168066406252,2228.49228515625 188.50076306152343,2203.986614746094 120.33560156249999,2177.19190625 48.676642211914064,2148.056037597656 -25.995668945312513,2116.52688671875 -103.2008858642578,2082.5523315429687 -182.4585625,2046.0802499999998 -263.28825280761725,2007.058520019531 -345.2095107421875,1965.43501953125 -427.74189025878906,1921.157626464844 -510.4049453125,1874.1742187500001 -592.7182298583984,1824.4326743164063 -674.2012978515625,1771.8808710937503 -754.3737032470704,1716.466687011719 -832.755,1658.138 -912.1997875976562,1594.512560180664 -995.35662109375,1523.9036142578125 -1081.4359877929687,1447.3022850341795 -1169.6483749999998,1365.6996953125 -1259.2042700195311,1280.0869678955078 -1349.3141601562502,1191.4552255859376 -1439.1885327148434,1100.7955911865236 -1528.0378750000002,1009.0991875 -1615.0726743164062,917.3571373291019 -1699.50341796875,826.5605634765627 -1780.540593261719,737.7005887451176 -1857.3946875000004,651.7683359375003 -1929.2761879882817,569.7549278564458 -1995.3955820312503,492.651487304688 -2054.963356933594,421.4491370849614 -2107.19,357.139 -2152.759840820313,301.4897921142578 -2193.087046875,254.65327441406248 -2228.4768623046875,215.19513708496095 -2259.23453125,181.6810703125 -2285.6652978515626,152.67676428222657 -2308.07440625,126.74790917968753 -2326.7671005859374,102.46019519042967 -2342.048625,78.3793125 -2354.2242236328125,53.07095129394531 -2363.599140625,25.10080175781249 -2370.4786201171873,-6.965445922851643 -2375.1679062500007,-44.562101562500004 -2377.9722431640625,-89.12347497558596 -2379.1968749999996,-142.08387597656258 -2379.1470458984377,-204.87761437988297 -2378.128,-278.939 -2374.6643887939454,-368.02934741210936 -2367.321563476563,-473.24952929687504 -2356.4658177490237,-592.0431926269532 -2342.4634453125,-721.8539843750001 -2325.6807398681644,-860.125551513672 -2306.4839951171875,-1004.3015410156249 -2285.2395047607424,-1151.8255998535155 -2262.3135625000004,-1300.1413750000002 -2238.072462036133,-1446.6925134277349 -2212.8824970703126,-1588.9226621093753 -2187.1099613037104,-1724.2754680175783 -2161.1211484375,-1850.1945781250004 -2135.2823521728515,-1964.1236394042971 -2109.959866210937,-2063.506298828125 -2085.519984252929,-2145.786203369141 -2062.329,-2208.407 -2039.6250454101564,-2250.7508107910157 -2016.42614453125,-2275.3185332031253 -1992.7684291992189,-2284.231977294922 -1968.6880312500002,-2279.6129531250003 -1944.2210825195314,-2263.583270751953 -1919.40371484375,-2238.2647402343755 -1894.2720600585938,-2205.7791716308598 -1868.8622500000004,-2168.248375 -1843.2104165039066,-2127.794160400391 -1817.3526914062502,-2086.5383378906254 -1791.3252065429688,-2046.6027175292973 -1765.1640937500001,-2010.1091093750001 -1738.9054848632818,-1979.179323486329 -1712.5855117187502,-1955.9351699218755 -1686.2403061523441,-1942.498458740235 -1659.906,-1940.991 -1634.1849025878905,-1950.1510532226564 -1609.476955078125,-1966.6014726562498 -1585.5147370605466,-1989.2909604492188 -1562.030828125,-2017.1682187499998 -1538.757807861328,-2049.181949707031 -1515.428255859375,-2084.28085546875 -1491.7747517089845,-2121.4136381835933 -1467.529875,-2159.5289999999995 -1442.426205322266,-2197.575643066406 -1416.1963222656252,-2234.50226953125 -1388.5728054199221,-2269.2575815429686 -1359.2882343750002,-2300.79028125 -1328.0751887207034,-2328.0490708007815 -1294.6662480468754,-2349.98265234375 -1258.7939919433597,-2365.5397280273437 -1220.191,-2373.669 -1178.365107055664,-2375.362905639648 -1133.2644111328125,-2372.5640654296876 -1085.28188659668,-2365.6464561767575 -1034.8105078125,-2354.9840546875002 -982.2432491455078,-2340.9508377685547 -927.9730849609374,-2323.920782226562 -872.3929896240236,-2304.267864868164 -815.8959375000001,-2282.3660624999998 -758.8749029541017,-2258.589351928711 -701.7228603515625,-2233.3117099609376 -644.8327840576173,-2206.9071134033197 -588.5976484375002,-2179.7495390625 -533.4104278564455,-2152.2129637451167 -479.66409667968765,-2124.6713642578125 -427.7516292724612,-2097.498717407226 -378.066,-2071.069 -330.1723601074218,-2043.2414890136718 -283.29771679687497,-2012.014169921875 -237.3278283691406,-1977.9690822753905 -192.14845312499997,-1941.688265625 -147.64534936523432,-1903.7537595214844 -103.70427539062499,-1864.747603515625 -60.21098950195309,-1825.251837158203 -17.051249999999946,-1785.8485 25.889184814453195,-1747.119631591797 68.72455664062508,-1709.647271484375 111.56910717773442,-1674.0134592285158 154.537078125,-1640.800234375 197.74271118164071,-1610.5896364746095 241.30024804687505,-1583.9637050781253 285.323930419922,-1561.5044797363284 329.928,-1543.794 374.8318863525391,-1532.3356975097659 419.6978251953125,-1527.559509765625 464.55426745605473,-1528.4372351074219 509.4296640625,-1533.9406718750001 554.3524659423828,-1543.0416184082032 599.3511240234374,-1554.711873046875 644.4540892333985,-1567.9232341308593 689.6898125,-1581.6475000000003 735.0867447509765,-1594.8564689941406 780.6733369140626,-1606.521939453125 826.4780399169923,-1615.615709716797 872.5293046875,-1621.109578125 918.8555821533204,-1621.9753430175783 965.4853232421876,-1617.184802734375 1012.446978881836,-1605.7097556152344 1059.769,-1586.522 1108.3982884521486,-1559.8021002197265 1158.9963623046874,-1526.8706142578123 1211.1635968017576,-1488.409330932617 1264.5003671875,-1445.1000390625 1318.6070487060547,-1397.6245274658202 1373.0840166015623,-1346.6645849609374 1427.5316461181637,-1292.902000366211 1481.5503125,-1237.0185625 1534.7403909912107,-1179.696060180664 1586.7022568359373,-1121.6162822265626 1637.0362852783198,-1063.4610174560548 1685.3428515624998,-1005.9120546875 1731.2223309326168,-949.6511827392579 1774.2750986328122,-895.3601904296875 1814.101529907226,-843.7208665771487 1850.302,-795.415 1883.1542012939453,-747.8980852050781 1913.3235634765624,-698.516306640625 1940.9920677490234,-647.7874880371093 1966.3416953125,-596.2294531249998 1989.554427368164,-544.3600256347655 2010.8122451171876,-492.69702929687503 2030.2971297607419,-441.7582878417969 2048.1910624999996,-392.06162500000005 2064.676024536133,-344.12486450195314 2079.9339970703127,-298.465830078125 2094.146961303711,-255.60234545898442 2107.4968984374996,-216.0522343750001 2120.1657896728516,-180.3333205566407 2132.3356162109376,-148.96342773437507 2144.18835925293,-122.46037963867195 2155.906,-101.342 2166.7985628662113,-88.31397949218749 2176.1497763671873,-84.76211718750001 2184.1021778564455,-89.2243994140625 2190.7983046874997,-100.23881250000001 2196.380694213867,-116.34334277343754 2200.9918837890623,-136.07597656250002 2204.7744107666012,-157.97470019531255 2207.8708125000003,-180.57750000000001 2210.4236263427733,-202.42236230468754 2212.5753896484375,-222.04727343750005 2214.4686397705077,-237.9902197265625 2216.2459140625,-248.78918749999997 2218.0497498779296,-252.9821630859375 2220.022684570313,-249.10713281250014 2222.3072554931646,-235.70208300781246 2225.046,-211.305 2228.5230616455074,-176.15075146484375 2232.7821025390626,-132.10101171875002 2237.604937866211,-80.13397705078127 2242.7733828124997,-21.227843750000016 2248.0692525634763,43.63919189453122 2253.2743623046877,113.48893359374998 2258.1705272216795,187.34318505859375 2262.5395624999996,264.22375 2266.163283325195,343.1524321289062 2268.8235048828124,423.1510351562499 2270.3020423583985,503.2413627929687 2270.3807109374998,582.4452187499999 2268.841325805664,659.7844067382812 2265.4657021484372,734.28073046875 2260.035655151367,804.9559936523436" fill="#1a3a5c" stroke="#333" stroke-width="5.120399620788573" opacity="0.9"/>
  <polygon points="1970.382,250.858 1972.0520931396486,306.1788397216797 1972.5074951171875,362.11497558593754 1971.7556085205078,418.4837701416016 1969.8038359375,475.1025859375 1966.6595799560548,531.788785522461 1962.3302431640625,588.3597314453125 1956.823228149414,644.6327862548827 1950.1459375000002,700.4253125 1942.305773803711,755.5546727294923 1933.3101396484376,809.8382294921873 1923.1664376220706,863.093345336914 1911.8820703125002,915.1373828125 1899.4644403076175,965.7877044677736 1885.9209501953126,1014.8616728515626 1871.259002563477,1062.1766505126955 1855.486,1107.55 1838.4526697998047,1151.3409407958984 1820.0409912109376,1194.0239482421875 1800.3052447509765,1235.5892686767577 1779.2997109375003,1276.0271484374998 1757.0786702880862,1315.3278338623047 1733.6964033203126,1353.4815712890625 1709.207190551758,1390.4786070556638 1683.6653125,1426.3091875 1657.1250496826171,1460.9635589599611 1629.6406826171876,1494.4319677734375 1601.2664918212893,1526.7046602783203 1572.0567578125003,1557.7718828125 1542.0657611083986,1587.6238817138671 1511.3477822265627,1616.2509033203123 1479.9571016845707,1643.6431939697268 1447.948,1669.791 1414.5069504394535,1694.7265860595703 1378.974642578125,1718.4848837890625 1341.6366813964844,1741.0601400146484 1302.778671875,1762.4466015624998 1262.6862189941407,1782.638515258789 1221.644927734375,1801.6301279296874 1179.9404030761718,1819.415686401367 1137.85825,1835.9894375 1095.6840734863283,1851.3456280517578 1053.703478515625,1865.4785048828123 1012.2020700683593,1878.3823148193358 971.465453125,1890.0513046875 931.7792326660157,1900.4797213134764 893.4290136718749,1909.6618115234376 856.7004011230467,1917.5918221435545 821.879,1924.264 788.9870697021485,1929.734494995117 757.7109013671876,1934.0511318359374 727.8321475830079,1937.195669555664 699.1324609375,1939.1498671875 671.3934940185546,1939.8954837646484 644.3968994140625,1939.4142783203124 617.9243297119141,1937.6880098876952 591.7574375,1934.6984375 565.6778753662109,1930.4273201904296 539.4672958984374,1924.8564169921874 512.9073516845704,1917.9674869384764 485.77969531249994,1909.7422890625 457.86597937011715,1900.162582397461 428.9478564453125,1889.2101259765623 398.80697912597657,1876.8666788330077 367.225,1863.114 333.60596411132815,1847.2287856445312 297.765150390625,1828.70169140625 260.10106225585946,1807.835415527344 221.012203125,1784.9326562500003 180.89707641601564,1760.2961118164062 140.15418554687503,1734.2284804687501 99.18203393554691,1707.032460449219 58.379125000000016,1679.0107500000001 18.143962158203138,1650.4660473632814 -21.124951171874997,1621.7010507812502 -59.02911157226565,1593.018458496094 -95.17001562499996,1564.72096875 -129.14915991210935,1537.1112797851567 -160.56804101562494,1510.4920898437504 -189.0281555175781,1485.1660971679692 -214.131,1461.436 -234.5055069580078,1439.1070108642577 -249.60671972656252,1417.6865009765625 -260.27530114746094,1397.0304066162107 -267.3519140625,1376.9946640624999 -271.67722131347654,1357.4352095947265 -274.0918857421875,1338.2079794921876 -275.4365701904297,1319.1689100341796 -276.5519375,1300.1739375 -278.2786505126953,1281.0789981689454 -281.45737207031254,1261.7400283203124 -286.92876501464843,1242.0129642333984 -295.5334921875,1221.7537421875 -308.11221643066403,1200.818298461914 -325.50560058593743,1179.0625693359377 -348.55430749511714,1156.3424910888675 -378.099,1132.514 -414.18158544921874,1108.372733276367 -455.86136328124996,1084.6686318359375 -502.5050844726562,1061.189087524414 -553.4794999999999,1037.7214921875 -608.1513608398437,1014.0532376708983 -665.8874179687499,989.9717158203124 -726.0544223632812,965.2643184814452 -788.0191249999999,939.7184374999999 -851.1482768554688,913.1214647216796 -914.8086289062499,885.2607919921874 -978.3669321289061,855.9238111572265 -1041.1899374999998,824.8979140624998 -1102.6443959960936,791.9704925537109 -1162.0970585937498,756.9289384765624 -1218.9146762695311,719.5606436767576 -1272.464,679.653 -1325.3669079589845,635.8713017578125 -1380.277865234375,587.4824453125001 -1436.6125031738281,535.1762255859375 -1493.786453125,479.6424375 -1551.2153464355467,421.57087597656255 -1608.314814453125,361.65133593750005 -1664.500488525391,300.5736123046874 -1719.188,239.02749999999997 -1771.7929802246094,177.7027939453125 -1821.7310605468751,117.28928906249995 -1868.417872314453,58.47678027343744 -1911.2690468750002,1.9550624999999684 -1949.7002155761725,-51.58606933593751 -1983.1270097656252,-101.45682031250016 -2010.9650607910155,-146.96739550781263 -2032.63,-187.428 -2046.9500034179687,-223.01583105468748 -2053.74100390625,-254.65792968750003 -2053.900268066406,-282.7892666015624 -2048.3250625000005,-307.84481249999993 -2037.9126538085939,-330.2595380859375 -2023.5603085937498,-350.46841406249996 -2006.165293457031,-368.9064111328124 -1986.6248749999997,-386.00849999999997 -1965.836319824219,-402.2096513671875 -1944.6968945312499,-417.9448359375 -1924.1038657226557,-433.64902441406247 -1904.9544999999998,-449.75718750000004 -1888.1460639648433,-466.70429589843746 -1874.5758242187499,-484.92532031249993 -1865.141047363281,-504.85523144531254 -1860.739,-526.929 -1860.8268381347657,-550.0371331787109 -1863.969634765625,-572.8633701171874 -1869.7265319824219,-595.5325294189453 -1877.656671875,-618.1694296874999 -1887.319196533203,-640.8988895263672 -1898.2732480468749,-663.8457275390625 -1910.0779685058594,-687.1347623291016 -1922.2925,-710.8908125 -1934.475984619141,-735.2386966552735 -1946.1875644531253,-760.3032333984376 -1956.986381591797,-786.2092413330079 -1966.4315781250002,-813.0815390625 -1974.0822961425788,-841.0449451904296 -1979.4976777343757,-870.2242783203125 -1982.236864990235,-900.7443570556643 -1981.859,-932.73 -1979.0406804199217,-967.631342163086 -1974.7875136718749,-1006.3675810546875 -1969.1521564941404,-1048.2671290283206 -1962.187265625,-1092.6583984375002 -1953.9454978027343,-1138.869801635742 -1944.479509765625,-1186.2297509765626 -1933.8419582519527,-1234.0666588134768 -1922.0854999999997,-1281.7089375 -1909.2627917480465,-1328.4849993896485 -1895.4264902343748,-1373.7232568359377 -1880.6292521972653,-1416.752122192383 -1864.9237343749999,-1456.9000078125 -1848.362593505859,-1493.4953260498046 -1830.9984863281247,-1525.8664892578126 -1812.8840695800777,-1553.3419097900394 -1794.072,-1575.25 -1772.896716796875,-1591.6860944824218 -1748.0759609375,-1603.496162109375 -1720.237341796875,-1611.1345666503905 -1690.00846875,-1615.055671875 -1658.016951171875,-1615.7138415527343 -1624.8903984375002,-1613.563439453125 -1591.2564199218748,-1609.058829345703 -1557.7426249999999,-1602.654375 -1524.976623046875,-1594.8044401855468 -1493.5860234375,-1585.963388671875 -1464.1984355468749,-1576.5855842285155 -1437.4414687499998,-1567.125390625 -1413.9427324218752,-1558.0371716308591 -1394.3298359375,-1549.7752910156248 -1379.230388671875,-1542.7941125488283 -1369.272,-1537.548 -1365.0669940185546,-1533.2459318847655 -1366.3391708984375,-1528.782783203125 -1372.3833541259764,-1524.1417624511719 -1382.4943671874998,-1519.3060781249999 -1395.9670335693359,-1514.258938720703 -1412.0961767578126,-1508.9835527343748 -1430.1766202392578,-1503.4631286621095 -1449.5031875,-1497.680875 -1469.3707020263669,-1491.6200002441406 -1489.0739873046875,-1485.2637128906251 -1507.9078668212887,-1478.595221435547 -1525.1671640625,-1471.5977343750003 -1540.1467025146483,-1464.254460205078 -1552.1413056640622,-1456.5486074218752 -1560.44579699707,-1448.4633845214848 -1564.355,-1439.982 -1564.6995361328127,-1430.5295620117188 -1562.9033984375,-1419.70388671875 -1559.1514677734376,-1407.7472446289062 -1553.628625,-1394.90190625 -1546.5197509765624,-1381.4101420898437 -1538.0097265625,-1367.51422265625 -1528.2834326171874,-1353.4564184570313 -1517.52575,-1339.4789999999998 -1505.9215595703126,-1325.8242377929687 -1493.6557421875004,-1312.73440234375 -1480.913178710938,-1300.451764160156 -1467.8787500000003,-1289.2185937499999 -1454.737336914063,-1279.2771616210937 -1441.6738203125005,-1270.8697382812497 -1428.873081054688,-1264.2385942382812 -1416.52,-1259.626 -1403.5717696533204,-1256.257553100586 -1389.0500244140626,-1253.2854013671874 -1373.2363079833983,-1250.8416407470704 -1356.4121640625,-1249.0583671875002 -1338.859136352539,-1248.0676766357421 -1320.8587685546877,-1248.0016650390623 -1302.6926043701171,-1248.9924283447267 -1284.6421874999999,-1251.1720625 -1266.9890616455077,-1254.6726634521483 -1250.0147705078125,-1259.6263271484374 -1234.0008577880856,-1266.1651495361327 -1219.2288671874999,-1274.4212265625 -1205.9803424072263,-1284.5266541748047 -1194.5368271484372,-1296.6135283203123 -1185.1798651123045,-1310.813944946289 -1178.191,-1327.26 -1174.0190488281253,-1346.968332885742 -1172.6678046875002,-1370.5318349609377 -1173.751275390625,-1397.446980102539 -1176.88346875,-1427.2102421875 -1181.678392578125,-1459.3180950927735 -1187.7500546874999,-1493.2670126953126 -1194.7124628906251,-1528.55346887207 -1202.179625,-1564.6739375 -1209.765548828125,-1601.1248924560546 -1217.0842421875,-1637.4028076171871 -1223.7497128906252,-1673.0041568603513 -1229.37596875,-1707.4254140624996 -1233.5770175781254,-1740.1630531005856 -1235.9668671875002,-1770.713547851562 -1236.1595253906253,-1798.573372192382 -1233.769,-1823.239 -1229.6744289550782,-1846.356656982422 -1224.966548828125,-1869.715427734375 -1219.5767653808593,-1893.0260744628908 -1213.436484375,-1915.999359375 -1206.4771115722656,-1938.3460446777344 -1198.630052734375,-1959.776892578125 -1189.826713623047,-1980.0026652832032 -1179.9985000000001,-1998.7341250000002 -1169.0768176269532,-2015.6820339355472 -1156.9930722656252,-2030.5571542968753 -1143.6786696777344,-2043.0702482910158 -1129.0650156250001,-2052.9320781250008 -1113.0835158691407,-2059.85340600586 -1095.665576171875,-2063.544994140626 -1076.7426022949219,-2063.7176047363287 -1056.246,-2060.082 -1032.9534223632816,-2051.8467921142574 -1006.0477460937501,-2038.7658603515624 -976.068212402344,-2021.367867553711 -943.5540625000001,-2000.1814765625 -909.0445375976562,-1975.7353502197266 -873.07887890625,-1948.5581513671873 -836.1963276367187,-1919.1785428466794 -798.9361250000001,-1888.1251875 -761.8375122070312,-1855.9267481689453 -725.4397304687499,-1823.1118876953126 -690.2820209960937,-1790.2092689208982 -656.9036249999999,-1757.7475546874998 -625.8437836914062,-1726.255407836914 -597.6417382812499,-1696.2614912109375 -572.8367299804686,-1668.294467651367 -551.968,-1642.883 -535.5049149169922,-1618.9357252197267 -523.1685537109374,-1595.0414111328125 -514.375726196289,-1571.248916870117 -508.54324218749997,-1547.6071015625 -505.08791149902333,-1524.1648243408204 -503.42654394531246,-1500.9709443359375 -502.97594934082025,-1478.074320678711 -503.1529375,-1455.5238125 -503.3743182373047,-1433.3682789306642 -503.0569013671875,-1411.6565791015623 -501.61749670410154,-1390.4375721435545 -498.47291406249997,-1369.7601171874999 -493.03996325683596,-1349.6730733642578 -484.73545410156254,-1330.2252998046874 -472.9761964111329,-1311.4656556396483 -457.179,-1293.443 -437.4372119140625,-1275.9161245117189 -414.49319531249995,-1258.6516835937498 -388.7372841796875,-1241.7103305664064 -360.5598125,-1225.15271875 -330.3511142578125,-1209.0395014648439 -298.50152343749994,-1193.43133203125 -265.4013740234375,-1178.3888637695313 -231.44099999999997,-1163.97275 -197.01073535156246,-1150.2436440429688 -162.50091406249993,-1137.2621992187499 -128.3018701171874,-1125.0890688476563 -94.80393749999993,-1113.78490625 -62.397450195312445,-1103.4103647460936 -31.472742187499904,-1094.02609765625 -2.420147460937386,-1085.6927583007812 24.37,-1078.471 49.42754284667969,-1072.2127438964847 73.59208496093751,-1066.739310546875 96.93793420410158,-1062.0654523925782 119.53939843750001,-1058.2059218749998 141.47078552246094,-1055.1754714355468 162.8064033203125,-1052.9888535156251 183.6205596923828,-1051.6608205566406 203.98756250000002,-1051.2061250000002 223.98171960449224,-1051.6395192871094 243.67733886718753,-1052.975755859375 263.14872814941407,-1055.2295871582032 282.47019531250004,-1058.4157656250002 301.7160482177735,-1062.549043701172 320.9605947265625,-1067.6441738281253 340.2781427001953,-1073.7159084472657 359.743,-1080.779 378.5775390625,-1089.9782938232422 396.1256328125,-1102.1362958984375 412.64383984374996,-1116.784249633789 428.38871875,-1133.4533984375 443.616828125,-1151.6749857177736 458.5847265625,-1170.9802548828125 473.54897265625004,-1190.9004493408204 488.766125,-1210.9668125000003 504.4927421875,-1230.7105877685544 520.9853828125,-1249.6630185546874 538.50060546875,-1267.3553482666014 557.2949687500001,-1283.3188203124996 577.62503125,-1297.0846781005857 599.7473515625001,-1308.1841650390622 623.91848828125,-1316.1485245361328 650.395,-1320.509 680.3263132324219,-1321.5633830566408 714.2588730468749,-1320.071728515625 751.5447658691406,-1316.258674560547 791.536078125,-1310.348859375 833.5848962402343,-1302.5669211425782 877.0433066406251,-1293.137498046875 921.2633957519531,-1282.2852282714844 965.59725,-1270.2347499999998 1009.3969558105468,-1257.2107014160158 1052.014599609375,-1243.4377207031253 1092.8022678222658,-1229.140446044922 1131.1120468749998,-1214.5435156250003 1166.2960231933594,-1199.8715676269533 1197.7062832031252,-1185.3492402343752 1224.6949133300782,-1171.2011716308593 1246.614,-1157.652 1262.6726921386721,-1144.0946451416016 1273.0397324218748,-1129.8243330078124 1278.5065979003907,-1114.919161010742 1279.8647656250002,-1099.4572265625 1277.9057126464843,-1083.5166270751954 1273.420916015625,-1067.1754599609376 1267.2018527832033,-1050.511822631836 1260.04,-1033.6038125 1252.726834716797,-1016.529526977539 1246.053833984375,-999.3670634765626 1240.8124748535156,-982.1945194091797 1237.794234375,-965.0899921874999 1237.7905895996096,-948.1315792236327 1241.593017578125,-931.3973779296874 1249.9929953613282,-914.9654857177734 1263.782,-898.914 1283.0332938232423,-884.3165512695313 1306.8860068359375,-871.87022265625 1334.730417602539,-861.0882905273437 1365.9568046875,-851.48403125 1399.9554466552734,-842.5707211914063 1436.1166220703124,-833.86163671875 1473.8306094970703,-824.8700541992188 1512.4876875,-815.1092500000001 1551.4781346435548,-804.0925004882813 1590.1922294921874,-791.3330820312501 1628.0202506103517,-776.3442709960938 1664.3524765625,-758.6393437500001 1698.579185913086,-737.7315766601564 1730.0906572265624,-713.1342460937501 1758.2771690673826,-684.3606284179689 1782.529,-650.924 1803.9124376220702,-612.4369963378906 1823.9139931640625,-569.1779863281249 1842.5542806396484,-521.6588464355469 1859.8539140625,-470.39145312499994 1875.833507446289,-415.8876828613281 1890.5136748046875,-358.659412109375 1903.915030151367,-299.2185173339844 1916.0581875,-238.07687499999997 1926.963760864258,-175.74636157226558 1936.6523642578122,-112.73885351562497 1945.1446116943357,-49.566227294921845 1952.4611171874997,13.25964062500006 1958.6224947509763,75.22687377929697 1963.6493583984375,135.82359570312508 1967.5623221435542,194.53792993164063" fill="#c2b280" stroke="#333" stroke-width="5.120399620788573" opacity="0.9"/>
  <polygon points="1880.486,194.496 1878.8740501708985,236.86117187500003 1873.7001982421878,277.39928125 1865.4323468017578,316.21734375 1854.5383984375,353.42237500000005 1841.4862557373049,389.12139062499995 1826.7438212890625,423.42140624999996 1810.7789976806641,456.42943750000006 1794.0596875,488.2525 1777.053793334961,518.997609375 1760.2292177734375,548.7717812499999 1744.05386340332,577.6820312499999 1728.9956328125,605.8353750000001 1715.5224285888671,633.338828125 1704.1021533203125,660.29940625 1695.2027095947265,686.8241249999999 1689.292,713.02 1686.5782889404295,738.0818326416016 1686.6736162109373,761.2954814453124 1689.1515474853516,782.9045477294922 1693.5856484375,803.1526328125 1699.5494847412108,822.2833380126953 1706.6166220703126,840.5402646484374 1714.3606260986328,858.1670140380859 1722.3550625,875.4071875000001 1730.1734969482422,892.5043863525391 1737.3894951171876,909.7022119140626 1743.576622680664,927.2442655029298 1748.3084453125,945.3741484375 1751.1585286865238,964.335462036133 1751.7004384765628,984.3718076171876 1749.5077403564458,1005.7267864990237 1744.154,1028.644 1736.7506328124998,1053.3273901367188 1728.6054453125,1079.64501953125 1719.58658984375,1107.3366704101563 1709.56221875,1136.1421249999999 1698.400484375,1165.8011655273438 1685.9695390625,1196.0535742187499 1672.13753515625,1226.6391333007812 1656.772625,1257.297625 1639.7429609375,1287.7688315429684 1620.9166953125,1317.7925351562499 1600.16198046875,1347.108518066406 1577.3469687499999,1375.4565625 1552.3398124999999,1402.5764506835935 1525.0086640624997,1428.20796484375 1495.2216757812494,1452.090887207031 1462.847,1473.965 1428.2864959716796,1495.9684873046874 1391.9872177734376,1519.970046875 1353.8851099853516,1545.3052314453123 1313.9161171874998,1571.30959375 1272.016183959961,1597.3186865234375 1228.1212548828125,1622.6680625 1182.1672745361327,1646.6932744140624 1134.0901875000002,1668.729875 1083.8259383544923,1688.1134169921875 1031.3104716796877,1704.179453125 976.4797320556643,1716.2635361328123 919.2696640625003,1723.70121875 859.6162122802737,1725.8280537109374 797.4553212890627,1721.9795937499998 732.7229356689454,1711.4913916015623 665.355,1693.699 592.3921126708984,1667.5193668212892 511.73806542968754,1632.9260595703124 424.6235928955078,1590.8395604248049 332.27942968749994,1542.1803515625002 235.93631042480467,1487.868915161133 136.82496972656247,1428.8257333984375 36.176142211914026,1365.9712884521487 -64.77943750000003,1300.2260625000001 -164.8110347900391,1232.5105377197267 -262.68791503906255,1163.7451962890625 -357.17934362792977,1094.8505203857421 -447.05458593750006,1026.7469921874997 -531.082907348633,960.3550938720703 -608.0335732421877,896.5953076171874 -676.6758489990233,836.3881156005858 -735.779,780.654 -786.56369921875,727.8911541748048 -831.3472890625001,675.9345849609375 -870.5440390625,624.7099947509766 -904.56821875,574.1430859374999 -933.83409765625,524.1595609130859 -958.7559453125,474.6851220703125 -979.7480312499999,425.6454718017578 -997.2246250000002,376.9663125 -1011.5999960937502,328.5733465576172 -1023.2884140625001,280.3922763671875 -1032.7041484375002,232.34880432128907 -1040.2614687500002,184.36863281250004 -1046.3746445312504,136.3774642333985 -1051.4579453125,88.30100097656248 -1055.9256406250001,40.06494543457032 -1060.192,-8.405 -1062.5674670410156,-58.09179479980468 -1061.3343222656251,-109.63042089843749 -1056.8645905761718,-162.57320959472653 -1049.530296875,-216.47249218749997 -1039.7034660644533,-270.88059997558594 -1027.756123046875,-325.3498642578124 -1014.0602927246093,-379.43261633300773 -998.9879999999999,-432.6811874999999 -982.9112697753907,-484.6479090576171 -966.202126953125,-534.8851123046875 -949.2325964355468,-582.945128540039 -932.374703125,-628.3802890624999 -916.0004719238282,-670.7429251708983 -900.481927734375,-709.5853681640623 -886.1910954589845,-744.4599493408202 -873.5,-774.919 -862.1373507080078,-801.0643355712891 -851.4743056640625,-823.4879267578125 -841.346562866211,-842.4773377685547 -831.5898203124999,-858.3201328125 -822.0397760009765,-871.3038760986327 -812.5321279296875,-881.7161318359375 -802.9025740966796,-889.8444642333984 -792.9868125,-895.9764375 -782.6205411376953,-900.3996158447264 -771.6394580078124,-903.4015634765625 -759.8792611083984,-905.2698446044923 -747.1756484375,-906.2920234374999 -733.364317993164,-906.7556641845705 -718.2809677734375,-906.9483310546875 -701.7612957763673,-907.1575882568361 -683.641,-907.671 -663.7365198974609,-907.076658203125 -642.1031044921875,-904.0068671875 -618.9346661376953,-898.815509765625 -594.4251171875,-891.8564687500001 -568.7683699951172,-883.4836269531249 -542.1583369140625,-874.0508671875 -514.7889302978515,-863.912072265625 -486.8540625,-853.4211250000001 -458.54764587402343,-842.931908203125 -430.06359277343745,-832.7983046874999 -401.59581555175777,-823.374197265625 -373.3382265624999,-815.0134687499999 -345.48473815917964,-808.0700019531249 -318.2292626953124,-802.8976796874999 -291.76571252441397,-799.8503847656248 -266.288,-799.282 -241.4679091796875,-801.6836450195312 -216.84067187500003,-807.00654296875 -192.3953720703125,-814.7947319335938 -168.12109375000003,-824.59225 -144.00692089843753,-835.9431352539062 -120.0419375,-848.3914257812501 -96.21522753906251,-861.4811596679688 -72.51587500000002,-874.756375 -48.932963867187524,-887.7611098632811 -25.45557812500003,-900.0394023437499 -2.0728017578125377,-911.1352905273436 21.22628125000001,-920.5928125 44.45258691406251,-927.9560063476562 67.61703125,-932.7689101562498 90.7305302734375,-934.5755620117186 113.804,-932.92 136.98119360351564,-927.2583502197265 160.35491601562498,-917.7186611328126 183.85966088867187,-904.8528543701171 207.42992187500002,-889.2128515625 231.00019262695312,-871.3505743408202 254.50496679687495,-851.8179443359375 277.8787380371093,-831.1668831787109 301.05600000000004,-809.9493125000001 323.97124633789065,-788.7171539306642 346.55897070312494,-768.0223291015626 368.7536667480469,-748.4167596435548 390.489828125,-730.4523671875002 411.7019484863281,-714.681073364258 432.32452148437505,-701.6547998046876 452.29204077148444,-691.9254681396487 471.539,-686.045 490.586075805664,-683.5091916503906 509.8907939453125,-683.3105175781249 529.2929217529297,-685.2459167480469 548.6322265625001,-689.112328125 567.7484757080078,-694.7066906738281 586.4814365234374,-701.825943359375 604.6708763427735,-710.2670251464843 622.1565625000001,-719.826875 638.7782623291016,-730.3024318847655 654.3757431640627,-741.4906347656249 668.7887723388674,-753.1884226074218 681.8571171875002,-765.1927343749999 693.4205450439456,-777.3005090332031 703.3188232421878,-789.3086855468749 711.3917191162112,-801.0142028808591 717.479,-812.214 720.7954877929687,-823.679994140625 720.95054296875,-836.2129062500001 718.3757407226564,-849.652880859375 713.5026562500001,-863.8400625000002 706.7628647460938,-878.614595703125 698.5879414062499,-893.816625 689.4094614257813,-909.2862949218751 679.659,-924.8637500000001 669.7681323242188,-940.389134765625 660.1684335937499,-955.70259375 651.2914790039061,-970.6442714843752 643.5688437499999,-985.0543125 637.4321030273436,-998.7728613281249 633.3128320312499,-1011.6400625000001 631.642605957031,-1023.496060546875 632.853,-1034.181 636.3856408691405,-1044.1258953857423 641.3323457031249,-1053.8315458984373 647.5999753417968,-1063.242773071289 655.095390625,-1072.3043984375001 663.7254523925781,-1080.9612435302734 673.397021484375,-1089.1581298828125 684.0169587402344,-1096.8398790283204 695.4921249999999,-1103.9513124999999 707.7293811035155,-1110.4372518310545 720.635587890625,-1116.2425185546874 734.1176062011717,-1121.3119342041014 748.0822968749999,-1125.5903203125 762.436520751953,-1129.0224984130857 777.0871386718749,-1131.5532900390622 791.9410114746092,-1133.1275167236327 806.905,-1133.69 823.2144748535156,-1133.049680541992 841.8830019531249,-1131.1302099609375 862.4847351074219,-1128.0484761962891 884.593828125,-1123.9213671875 907.7844348144532,-1118.8657708740234 931.630708984375,-1112.9985751953125 955.7068044433594,-1106.4366680908204 979.5868750000001,-1099.2969375 1002.8450744628908,-1091.6962713623045 1025.0555566406251,-1083.7515576171872 1045.792475341797,-1075.5796842041013 1064.629984375,-1067.2975390624997 1081.1422375488285,-1059.0220101318357 1094.9033886718753,-1050.8699853515625 1105.4875915527346,-1042.9583526611327 1112.469,-1035.404 1115.3714173583985,-1028.0222391357422 1114.3377216796875,-1020.5425615234375 1109.8706788330078,-1012.953124633789 1102.4730546875,-1005.2420859375001 1092.647615112305,-997.3976029052734 1080.8971259765624,-989.4078330078125 1067.7243531494141,-981.2609337158202 1053.6320625,-972.9450625 1039.123019897461,-964.4483768310546 1024.6999912109377,-955.7590341796873 1010.8657423095705,-946.8651920166014 998.1230390625002,-937.7550078124998 986.9746473388674,-928.4166390380857 977.9233330078127,-918.8382431640622 971.4718619384768,-909.0079776611325 968.123,-898.914 966.4242547607422,-888.1930880126953 964.7294912109376,-876.5925634765625 963.2510113525392,-864.2663997802734 962.2011171875,-851.3685703125001 961.7921107177734,-838.053048461914 962.2362939453125,-824.4738076171875 963.7459688720704,-810.7848211669923 966.5334375,-797.1400625 970.8110018310548,-783.6935050048829 976.7909638671875,-770.5991220703127 984.6856256103517,-758.010887084961 994.7072890625,-746.0827734375001 1007.0682562255861,-734.9687545166017 1021.9808291015626,-724.8228037109376 1039.657309692383,-715.79889440918 1060.31,-708.051 1085.2770710449217,-703.1066082763672 1115.294521484375,-701.9079521484376 1149.6713947753906,-703.7311226806642 1187.716734375,-707.8522109375001 1228.7395837402344,-713.5473079833985 1272.048986328125,-720.0925048828126 1316.9539855957032,-726.7638927001955 1362.7636250000003,-732.8375624999999 1408.786947998047,-737.5896053466797 1454.332998046875,-740.2961123046874 1498.7108186035157,-740.2331744384766 1541.229453125,-736.6768828125 1581.1979450683598,-728.9033284912109 1617.925337890625,-716.1886025390626 1650.7206750488285,-697.808796020508 1678.893,-673.04 1703.6647493896485,-641.0459219970703 1726.7308154296875,-602.0497978515624 1748.108924926758,-556.9170111083984 1767.8168046875,-506.5129453124999 1785.872181518555,-451.70298400878903 1802.2927822265624,-393.3525107421875 1817.0963336181644,-332.3269090576172 1830.3005625,-269.4915625 1841.923195678711,-205.71185461425776 1851.9819599609377,-141.85316894531246 1860.4945821533204,-78.78088903808595 1867.4787890625,-17.360398437500038 1872.952307495117,41.54291931152352 1876.9328642578123,97.06368066406253 1879.4381861572265,148.3365020751953" fill="#8a8a7a" stroke="#333" stroke-width="5.120399620788573" opacity="0.9"/>
  <polygon points="1419.841,949.738 1419.246041870117,975.106685180664 1417.2035771484375,1003.6738486328126 1413.752282836914,1034.9350897216798 1408.9308359374998,1068.3860078125 1402.7779134521484,1103.522202270508 1395.3321923828123,1139.8392724609373 1386.632349731445,1176.8328177490232 1376.7170624999999,1213.9984375000001 1365.6250076904294,1250.8317310791015 1353.394862304687,1286.8282978515624 1340.0653033447263,1321.4837371826172 1325.6750078124994,1354.2936484375 1310.2626527099605,1384.753630981445 1293.866915039062,1412.3592841796874 1276.5264718017572,1436.6062073974606 1258.28,1456.99 1239.814970703125,1475.1617850341797 1221.5908359374998,1492.9152490234374 1203.3042441406249,1509.9598365478516 1184.65184375,1526.0049921875002 1165.330283203125,1540.760160522461 1145.0362109374998,1553.9347861328126 1123.466275390625,1565.2383135986329 1100.317125,1574.3801874999997 1075.285408203125,1581.069852416992 1048.0677734375001,1585.0167529296873 1018.3608691406251,1585.9303336181638 985.8613437500002,1583.5200390624998 950.2658457031251,1577.4953138427734 911.2710234375002,1567.5656025390622 868.573525390625,1553.4403497314452 821.87,1534.829 768.6843835449218,1509.9082312011717 707.551435546875,1477.676693359375 639.6840393066407,1439.0767893066406 566.295078125,1395.0509218749999 488.5974353027343,1346.5414938964846 407.803994140625,1294.4909082031252 325.12763793945305,1239.841567626953 241.78124999999994,1183.5358750000003 158.97771362304684,1126.5162331542972 77.92991210937492,1069.7250449218752 -0.14927124023455463,1014.1047131347658 -74.04695312500002,960.5976406250004 -142.55025024414073,910.1462302246098 -204.44627929687522,863.6928847656256 -258.5221569824221,822.1800070800788 -303.565,786.55 -340.21246704101566,757.3091856689452 -370.333728515625,733.7398681640625 -394.56316870117183,714.9484232177733 -413.535171875,700.0412265624999 -427.8841223144531,688.124653930664 -438.2444042968751,678.3050810546874 -445.2504020996094,669.6888836669922 -449.5365,661.3824374999999 -451.7370822753906,652.4921182861327 -452.48653320312496,642.1243017578124 -452.41923706054695,629.3853636474608 -452.1695781250001,613.3816796874999 -452.37194067382825,593.2196256103514 -453.66070898437505,568.0055771484373 -456.67026733398444,536.8459100341796 -462.035,498.847 -469.17239953613284,452.21708740234374 -476.92222753906253,396.67484765625 -485.05227185058595,333.59230908203125 -493.3303203125001,264.34149999999994 -501.5241607666016,190.29444873046876 -509.40158105468754,112.82318359375004 -516.7303690185547,33.29973291015625 -523.2783125,-46.90387499999996 -528.8131993408203,-126.41561181640614 -533.1028173828125,-203.8634492187499 -535.9149544677734,-277.87535888671863 -537.0173984375,-347.0793124999998 -536.1779371337891,-410.10328173828105 -533.1643583984376,-465.57523828124977 -527.7444500732422,-512.1231538085935 -519.686,-548.375 -508.6405239257813,-575.8806726074218 -494.62080078125,-597.3622167968749 -477.93651318359383,-613.2058283691407 -458.89734375000006,-623.7977031249999 -437.8129750976563,-629.5240368652343 -414.99308984375006,-630.7710253906249 -390.74737060546875,-627.9248645019532 -365.3855,-621.37175 -339.21716064453125,-611.4978776855468 -312.55203515625,-598.689443359375 -285.69980615234374,-583.3326428222656 -258.97015625,-565.813671875 -232.67276806640618,-546.5187263183593 -207.11732421874993,-525.8340019531249 -182.61350732421872,-504.145694580078 -159.471,-481.84 -136.72626098632816,-455.8584738769531 -113.31483789062499,-423.511986328125 -89.39504663085938,-385.74070483398435 -65.12520312500001,-343.48479687500003 -40.663623291015625,-297.6844299316406 -16.168623046875016,-249.279771484375 8.201481689453127,-199.2109890136719 32.28837499999999,-148.41825 55.933740966796854,-97.8417219238281 78.97926367187499,-48.421572265625 101.26662719726562,-1.097968505859427 122.63751562499996,43.18892187499995 142.93361303710935,83.4989313964843 161.996603515625,118.89189257812495 179.6681711425781,148.42763793945312 195.79,171.166 210.58012463378904,188.0513698730469 224.38137988281252,200.862716796875 237.2226502685547,209.9117404785156 249.1328203125,215.510140625 260.14077453613277,217.96961694335937 270.2753974609375,217.601869140625 279.56557360839844,214.71859692382813 288.0401875,209.63150000000005 295.72812365722655,202.65227807617194 302.65826660156245,194.09263085937502 308.8595008544922,184.26425805664064 314.3607109375,173.47885937500007 319.1907813720704,162.04813452148437 323.3785966796876,150.28378320312498 326.953041381836,138.49750512695314 329.943,127.001 331.58416015625,114.40577978515626 331.2826484375,99.33343359375 329.3230078125,82.11077685546876 325.98978125,63.064625 321.56751171875,42.521793457031244 316.3407421875,20.809097656250003 310.594015625,-1.7466469726562472 304.611875,-24.818625000000004 298.67886328124996,-48.080020996093765 293.07952343750003,-71.20401953125001 288.0983984375,-93.86380517578125 284.02003125000005,-115.7325625 281.12896484375005,-136.48347607421877 279.70974218749996,-155.78973046874998 280.04690625,-173.32451025390625 282.425,-188.761 286.48781359863284,-204.18593029785154 291.6453212890625,-221.5072236328125 297.83134216308594,-240.12985241699218 304.97969531250004,-259.4587890625 313.0241998291016,-278.8990059814453 321.8986748046875,-297.85547558593754 331.5369393310547,-315.73317028808594 341.8728125,-331.9370625 352.84011340332034,-345.87212463378904 364.3726611328126,-356.9433291015625 376.40427478027345,-364.5556483154296 388.86877343750007,-368.11405468749996 401.6999761962891,-367.0235206298828 414.83170214843756,-360.68901855468744 428.1977703857423,-348.5155208740234 441.732,-329.908 455.86451721191406,-302.9819418945313 470.9872236328125,-267.04295703125 486.9766014404297,-223.28120458984375 503.70913281250006,-172.88684375000003 521.0612999267578,-117.05003369140628 538.9095849609375,-56.960933593750056 557.1304700927734,6.190297363281218 575.6004375,71.21349999999994 594.1959693603516,136.91851513671867 612.7935478515625,202.1151835937499 631.2696551513671,265.61334619140615 649.5007734375,326.2228437499998 667.3633848876952,382.75351708984357 684.7339716796876,434.01520703124993 701.4890159912109,478.8177543945311 717.505,515.971 732.7497805175781,546.9101378173827 747.342517578125,574.0629384765625 761.3866481933594,597.7281077880859 774.985609375,618.2043515624999 788.2428381347656,635.7903756103515 801.2617714843749,650.7848857421876 814.1458464355468,663.4865877685547 826.9985,674.1941875000001 839.923169189453,683.2063907470704 853.0232910156249,690.8219033203125 866.4023024902342,697.3394310302735 880.1636406249999,703.0576796875 894.4107424316405,708.2753551025392 909.2470449218749,713.2911630859376 924.7759851074218,718.4038094482422 941.101,723.912 958.4638497314453,728.352105834961 976.9222978515625,730.3056279296875 996.3037864990234,730.1389669189452 1016.4357578125,728.2185234375 1037.1456539306641,724.9106981201173 1058.2609169921875,720.5818916015626 1079.6089891357421,715.5985045166016 1101.0173125000001,710.3269375 1122.3133292236328,705.1335911865235 1143.3244814453126,700.3848662109375 1163.878211303711,696.4471632080076 1183.8019609375,693.6868828125 1202.9231724853519,692.4704256591797 1221.0692880859376,693.1641923828124 1238.0677498779298,696.1345836181639 1253.746,701.748 1268.7520095214843,709.3526508789063 1283.7603574218754,718.0471601562501 1298.6383977050782,727.8235502929688 1313.253484375,738.6738437500001 1327.472971435547,750.5900629882814 1341.164212890625,763.56423046875 1354.1945627441407,777.5883686523438 1366.431375,792.6545000000001 1377.7420036621093,808.7546469726564 1387.993802734375,825.8808320312501 1397.0541262207032,844.0250776367188 1404.790328125,863.17940625 1411.069762451172,883.3358403320315 1415.7597832031252,904.4864023437501 1418.7277443847659,926.623114746094" fill="#8a8a7a" stroke="#333" stroke-width="5.120399620788573" opacity="0.9"/>
  <polygon points="126.446,487.575 133.05815112304685,511.8320117187499 136.79835742187498,534.1924453125 137.91084204101563,554.6832421874999 136.63982812499998,573.33134375 133.22953881835934,590.1636914062499 127.924197265625,605.2072265625 120.96802661132813,618.488890625 112.60524999999998,630.035625 103.08009057617184,639.8743710937499 92.63677148437498,648.0320703125 81.51951586914062,654.5356640624998 69.972546875,659.4120937499999 58.240087646484355,662.6883007812498 46.56636132812497,664.3912265624999 35.19559106445314,664.5478124999997 24.372,663.185 13.031615234375,660.0730705566405 0.11197656249999988,655.0124316406249 -14.140423828125,648.0752136230468 -29.479093750000004,639.333546875 -45.657541015625,628.859561767578 -62.429273437499994,616.725388671875 -79.54779882812501,603.0031579589844 -96.766625,587.7650000000001 -113.83925976562499,571.0830451660156 -130.5192109375,553.0294238281251 -146.559986328125,533.6762663574218 -161.71509375,513.095703125 -175.73804101562502,491.35986450195315 -188.3823359375,468.540880859375 -199.40148632812497,444.7108825683594 -208.549,419.942 -216.61322827148436,391.327521484375 -224.45713085937498,356.6525078125 -231.94612817382816,317.026748046875 -238.945640625,273.56003125 -245.32108862304688,227.362146484375 -250.937892578125,179.54288281249998 -255.6614729003906,131.212029296875 -259.35724999999996,83.47937499999999 -261.89064428710935,37.454708984375 -263.127076171875,-5.752179687499989 -262.93196606445315,-45.03150195312503 -261.170734375,-79.27346875000006 -257.70880151367186,-107.36829101562506 -252.41158789062501,-128.20617968750008 -245.14451391601563,-140.67734570312496 -235.773,-143.672 -222.9805380859375,-136.20260375976562 -205.957203125,-118.82738476562501 -185.3282900390625,-92.75520385742186 -161.71909374999998,-59.19492187499999 -135.75490917968753,-19.35539965820314 -108.06103125,25.55450195312499 -79.2627548828125,74.32592211914059 -49.98537500000001,125.74999999999997 -20.854186523437534,178.6178747558594 7.505515624999958,231.72068554687496 34.468436523437504,283.8495715332031 59.409281249999964,333.795671875 81.70275488281248,380.35012573242176 100.72356249999996,422.3040722656249 115.84640917968744,458.4486506347657" fill="#8a8a7a" stroke="#333" stroke-width="5.120399620788573" opacity="0.9"/>
  <polygon points="1701.549,14.14 1703.2060267333984,37.27729248046875 1704.3870732421874,57.424675781249995 1704.9999327392577,74.82787744140624 1704.9523984374998,89.732625 1704.1522635498045,102.38464599609375 1702.5073212890625,113.02966796875 1699.925364868164,121.91341845703123 1696.3141875000001,129.281625 1691.581582397461,135.38001513671873 1685.6353427734375,140.45431640624997 1678.3832618408203,144.7502563476562 1669.7331328125001,148.51356249999992 1659.5927489013673,151.9899624023437 1647.8699033203127,155.42518359374992 1634.4723892822267,159.0649536132812 1619.308,163.155 1601.415441894531,167.28174548339845 1580.1963164062502,170.8579482421875 1556.1027592773437,173.8688389892578 1529.58690625,176.2996484375 1501.1008930664063,178.1356072998047 1471.09685546875,179.36194628906253 1440.0269291992188,179.96389611816406 1408.34325,179.9266875 1376.4979536132814,179.23555114746097 1344.9431757812501,177.8757177734375 1314.1310522460938,175.8324180908203 1284.51371875,173.09088281249998 1256.5433110351562,169.6363426513672 1230.67196484375,165.45402832031252 1207.3518159179687,160.5291705322266 1187.035,154.847 1168.9552474365235,148.57746362304687 1152.0281591796877,141.862255859375 1136.2286768798829,134.64422875976564 1121.5317421875002,126.866234375 1107.91229675293,118.47112475585938 1095.3452822265626,109.40175195312501 1083.805640258789,99.60096801757814 1073.2683125,89.01162500000001 1063.7082406005861,77.57657495117189 1055.1003662109376,65.23866992187502 1047.4196309814456,51.94076196289063 1040.6409765625,37.625703125000015 1034.7393446044923,22.236345458984392 1029.6896767578128,5.715541015625028 1025.4669146728518,-11.993858154296852 1022.046,-30.949 1019.1645783691407,-52.036418823242194 1016.6592128906251,-75.8402021484375 1014.6532214355469,-101.96382775878907 1013.269921875,-130.0107734375 1012.6326320800781,-159.58451696777342 1012.8646699218749,-190.2885361328125 1014.0893532714844,-221.72630871582035 1016.4299999999998,-253.50131249999998 1020.0099279785155,-285.2170252685547 1024.9524550781248,-316.4769248046875 1031.3808991699218,-346.88448889160156 1039.4185781249998,-376.04319531249996 1049.188809814453,-403.55652185058585 1060.8149121093747,-429.02794628906247 1074.420202880859,-452.06094641113276 1090.128,-472.259 1109.047180419922,-491.28547680664065 1131.848419921875,-510.818384765625 1157.9977346191406,-530.4831589355468 1186.9611406249999,-549.905234375 1218.2046540527344,-568.7100461425781 1251.194291015625,-586.5230292968749 1285.396067626953,-602.9696188964845 1320.2760000000003,-617.6752499999999 1355.3001042480469,-630.2653576660157 1389.9343964843752,-640.365376953125 1423.6448928222658,-647.6007429199219 1455.8976093750002,-651.596890625 1486.1585622558594,-651.9792551269531 1513.893767578125,-648.373271484375 1538.5692414550783,-640.4043747558594 1559.651,-627.698 1577.9285251464844,-608.5786059570312 1594.597818359375,-582.25029296875 1609.7346750488282,-549.6579584960938 1623.4148906250002,-511.7464999999999 1635.714260498047,-469.4608149414063 1646.708580078125,-423.74580078125 1656.4736447753908,-375.5463549804688 1665.0852500000003,-325.8073750000001 1672.6191911621092,-275.47375830078136 1679.151263671875,-225.4904023437501 1684.7572629394533,-176.80220458984388 1689.5129843750005,-130.3540625000001 1693.4942233886723,-87.09087353515639 1696.7767753906255,-47.95753515625029 1699.436435791016,-13.898944824218916" fill="#8a8a7a" stroke="#333" stroke-width="5.120399620788573" opacity="0.9"/>
</svg>
